PathFileType	4	(X/Y/Z)	RBDS012static.trc
DataRate	CameraRate	NumFrames	NumMarkers	Units	OrigDataRate	OrigDataStartFrame	OrigNumFrames
150.000000	150.000000	4	48	mm	150.000000	0	150
Frame#	Time	L.Ankle			L.Ankle.Medial			L.ASIS			L.GTR			L.Heel.Bottom			L.Heel.Lateral			L.Heel.Top			L.HF			L.Iliac.Crest			L.Knee			L.Knee.Medial			L.MT1			L.MT2			L.MT5			L.PSIS			L.Shank.Bottom.Lateral			L.Shank.Bottom.Medial			L.Shank.Top.Lateral			L.Shank.Top.Medial			L.Thigh.Bottom.Lateral			L.Thigh.Bottom.Medial			L.Thigh.Top.Lateral			L.Thigh.Top.Medial			L.TT			R.Ankle			R.Ankle.Medial			R.ASIS			R.GTR			R.Heel.Bottom			R.Heel.Lateral			R.Heel.Top			R.HF			R.Iliac.Crest			R.Knee			R.Knee.Medial			R.MT1			R.MT2			R.MT5			R.PSIS			R.Shank.Bottom.Lateral			R.Shank.Bottom.Medial			R.Shank.Top.Lateral			R.Shank.Top.Medial			R.Thigh.Bottom.Lateral			R.Thigh.Bottom.Medial			R.Thigh.Top.Lateral			R.Thigh.Top.Medial			R.TT			
		X1	Y1	Z1	X2	Y2	Z2	X3	Y3	Z3	X4	Y4	Z4	X5	Y5	Z5	X6	Y6	Z6	X7	Y7	Z7	X8	Y8	Z8	X9	Y9	Z9	X10	Y10	Z10	X11	Y11	Z11	X12	Y12	Z12	X13	Y13	Z13	X14	Y14	Z14	X15	Y15	Z15	X16	Y16	Z16	X17	Y17	Z17	X18	Y18	Z18	X19	Y19	Z19	X20	Y20	Z20	X21	Y21	Z21	X22	Y22	Z22	X23	Y23	Z23	X24	Y24	Z24	X25	Y25	Z25	X26	Y26	Z26	X27	Y27	Z27	X28	Y28	Z28	X29	Y29	Z29	X30	Y30	Z30	X31	Y31	Z31	X32	Y32	Z32	X33	Y33	Z33	X34	Y34	Z34	X35	Y35	Z35	X36	Y36	Z36	X37	Y37	Z37	X38	Y38	Z38	X39	Y39	Z39	X40	Y40	Z40	X41	Y41	Z41	X42	Y42	Z42	X43	Y43	Z43	X44	Y44	Z44	X45	Y45	Z45	X46	Y46	Z46	X47	Y47	Z47	X48	Y48	Z48	

1	0	715.4700317382813	107.2080993652344	1041.971313476563	743.103271484375	120.1570281982422	1126.037109375	864.9913330078125	1038.868774414063	1083.60009765625	782.105712890625	965.204833984375	1043.341430664063	642.514404296875	43.19770050048828	1086.018676757813	673.7891845703125	55.6341667175293	1040.087280273438	653.078857421875	93.01181030273438	1084.99072265625	756.0103149414063	482.75146484375	1046.435913085938	807.2989501953125	1105.472534179688	1051.540405273438	757.1449584960938	556.9717407226563	1048.007202148438	765.9043579101563	531.9586181640625	1178.143798828125	865.3516235351563	56.69876098632813	1128.926147460938	878.6625366210938	66.43202209472656	1081.936767578125	841.8070068359375	51.38354110717773	1009.941040039063	693.4732666015625	1080.004028320313	1174.921264648438	724.8114013671875	187.3411865234375	1037.474731445313	680.9302368164063	188.1439056396484	1071.027221679688	718.1477661132813	267.3068542480469	1028.507202148438	677.1241455078125	268.8384704589844	1063.34326171875	790.0311889648438	656.1901245117188	1030.352172851563	723.755615234375	655.1475219726563	1060.139038085938	780.1558227539063	766.154541015625	1022.639221191406	721.2384033203125	765.7033081054688	1057.340942382813	811.0238037109375	464.5432434082031	1092.105102539063	722.18115234375	110.2468872070313	1406.059448242188	749.7996826171875	123.5574111938477	1324.487670898438	865.1819458007813	1051.029663085938	1365.568725585938	793.6092529296875	961.7752685546875	1408.493530273438	642.6898193359375	44.9784049987793	1373.108154296875	665.1748046875	62.64141464233398	1408.747680664063	655.2260131835938	94.69100952148438	1370.53955078125	775.768798828125	480.5090637207031	1400.184448242188	809.9940795898438	1109.069580078125	1391.402099609375	774.078125	556.300048828125	1398.012939453125	783.9992065429688	538.0054321289063	1268.45263671875	864.9288330078125	58.59395599365234	1323.031982421875	879.8121948242188	67.05028533935547	1373.520385742188	841.291015625	52.91489028930664	1441.964477539063	694.715576171875	1078.92919921875	1278.751831054688	723.8062744140625	193.2776184082031	1409.089721679688	684.5755615234375	201.0698852539063	1377.289794921875	729.3639526367188	277.2623596191406	1420.338989257813	687.245849609375	281.3046875	1387.987182617188	774.9569091796875	645.2198486328125	1411.510131835938	717.2203369140625	644.923583984375	1365.213989257813	766.5414428710938	754.7111206054688	1415.983032226563	713.9835205078125	755.310546875	1370.803833007813	829.055908203125	466.0878601074219	1354.050537109375	
2	0.006666666666666667	715.4701538085938	107.2106628417969	1041.97119140625	743.1107788085938	120.1507263183594	1126.028442382813	864.9761352539063	1038.867553710938	1083.593017578125	782.08056640625	965.2072143554688	1043.327514648438	642.5028076171875	43.19474029541016	1086.020874023438	673.7910766601563	55.62743377685547	1040.079467773438	653.07861328125	93.01521301269531	1084.994384765625	756.0107421875	482.7315673828125	1046.416870117188	807.21240234375	1105.444702148438	1051.387329101563	757.1585083007813	556.9530639648438	1048.012573242188	765.913330078125	531.956298828125	1178.144287109375	865.3533935546875	56.69792938232422	1128.93359375	878.6526489257813	66.43148040771484	1081.938110351563	841.7937622070313	51.37486267089844	1009.940673828125	693.46240234375	1080.006103515625	1174.913452148438	724.81640625	187.3255920410156	1037.467163085938	680.9325561523438	188.1398315429688	1071.0224609375	718.150146484375	267.3001403808594	1028.499877929688	677.119140625	268.833251953125	1063.342651367188	790.019287109375	656.1746215820313	1030.353515625	723.7527465820313	655.1361083984375	1060.140869140625	780.1536254882813	766.144287109375	1022.645568847656	721.2269897460938	765.6884155273438	1057.333129882813	811.01513671875	464.5302124023438	1092.093139648438	722.1690063476563	110.2404632568359	1406.065185546875	749.8150024414063	123.5581817626953	1324.485107421875	865.1695556640625	1051.028442382813	1365.559204101563	793.5839233398438	961.7767944335938	1408.492797851563	642.6851806640625	44.98597717285156	1373.114013671875	665.1704711914063	62.64092636108398	1408.743408203125	655.2289428710938	94.68952941894531	1370.547729492188	775.7572631835938	480.5053100585938	1400.17041015625	809.96875	1109.065795898438	1391.393798828125	774.059814453125	556.3064575195313	1398.005493164063	783.9954223632813	537.9920654296875	1268.45068359375	864.93603515625	58.59220123291016	1323.03515625	879.8170166015625	67.05390930175781	1373.519287109375	841.2796020507813	52.92282485961914	1441.971557617188	694.703369140625	1078.93212890625	1278.734252929688	723.7984008789063	193.2699584960938	1409.085327148438	684.57177734375	201.0621185302734	1377.2861328125	729.3587646484375	277.2546997070313	1420.336547851563	687.2383422851563	281.3059387207031	1387.985961914063	774.9305419921875	645.2177734375	1411.496826171875	717.1968383789063	644.917236328125	1365.198608398438	766.5028686523438	754.7193603515625	1415.977905273438	713.9586181640625	755.3073120117188	1370.787109375	829.0556640625	466.0974731445313	1354.035766601563	
3	0.01333333333333333	715.4794311523438	107.2052612304688	1041.964233398438	743.1096801757813	120.1496963500977	1126.027709960938	864.967041015625	1038.873901367188	1083.5859375	782.0646362304688	965.19677734375	1043.323364257813	642.5066528320313	43.1942138671875	1086.013061523438	673.7935791015625	55.62412643432617	1040.082397460938	653.0746459960938	93.00601959228516	1085.0087890625	756.01318359375	482.7386169433594	1046.414306640625	807.1752319335938	1105.436645507813	1051.374145507813	757.1617431640625	556.9534301757813	1048.002563476563	765.9002075195313	531.9446411132813	1178.135620117188	865.34375	56.6917724609375	1128.932739257813	878.6597290039063	66.43180847167969	1081.941040039063	841.7979125976563	51.37288284301758	1009.937927246094	693.4330444335938	1080.001953125	1174.896240234375	724.8145751953125	187.3241424560547	1037.461303710938	680.9241943359375	188.1336975097656	1071.0302734375	718.1611938476563	267.2952880859375	1028.496826171875	677.1243286132813	268.8350830078125	1063.333740234375	790.0214233398438	656.1748046875	1030.342895507813	723.7509155273438	655.1311645507813	1060.132690429688	780.1493530273438	766.1427612304688	1022.62255859375	721.2191772460938	765.6787719726563	1057.327026367188	811.0277099609375	464.5349426269531	1092.095703125	722.1693115234375	110.2353591918945	1406.078369140625	749.8037109375	123.5639953613281	1324.482666015625	865.1471557617188	1051.030517578125	1365.548583984375	793.5616455078125	961.7772827148438	1408.48486328125	642.68798828125	44.98206329345703	1373.121459960938	665.1764526367188	62.64156723022461	1408.745483398438	655.2221069335938	94.68856048583984	1370.541381835938	775.7418823242188	480.515869140625	1400.185546875	809.951171875	1109.064086914063	1391.382446289063	774.0322875976563	556.2996826171875	1398.002563476563	783.976318359375	537.9940795898438	1268.443725585938	864.9257202148438	58.59669876098633	1323.03173828125	879.8134765625	67.05123138427734	1373.513916015625	841.2896728515625	52.92044067382813	1441.973999023438	694.6703491210938	1078.9365234375	1278.7294921875	723.7935180664063	193.2765045166016	1409.084594726563	684.56103515625	201.0575714111328	1377.281616210938	729.3541259765625	277.2557678222656	1420.328125	687.2260131835938	281.2953796386719	1387.987915039063	774.9077758789063	645.2144775390625	1411.484375	717.1752319335938	644.91650390625	1365.192138671875	766.4801025390625	754.7133178710938	1415.968139648438	713.9215087890625	755.3018798828125	1370.797485351563	829.0292358398438	466.0806579589844	1354.046630859375	
4	0.02	715.4727783203125	107.2055892944336	1041.961181640625	743.0975341796875	120.1438293457031	1126.03369140625	864.9448852539063	1038.867431640625	1083.578125	782.0562744140625	965.183837890625	1043.318969726563	642.5081787109375	43.19860076904297	1086.020263671875	673.7930297851563	55.6196403503418	1040.0859375	653.0667724609375	92.99344635009766	1085.002075195313	756.0283813476563	482.7262573242188	1046.413940429688	807.1603393554688	1105.436401367188	1051.370727539063	757.1678466796875	556.93408203125	1047.988647460938	765.90625	531.9406127929688	1178.125610351563	865.3493041992188	56.69272994995117	1128.932373046875	878.6522827148438	66.42454528808594	1081.94091796875	841.8041381835938	51.36839294433594	1009.947021484375	693.4170532226563	1079.991943359375	1174.885009765625	724.8248291015625	187.310791015625	1037.449829101563	680.9314575195313	188.1298370361328	1071.009399414063	718.1582641601563	267.2958068847656	1028.49169921875	677.1176147460938	268.8254089355469	1063.340209960938	790.0213012695313	656.1693115234375	1030.338623046875	723.7439575195313	655.109375	1060.130249023438	780.1322021484375	766.1296997070313	1022.628723144531	721.2048950195313	765.670166015625	1057.314331054688	811.01904296875	464.5179748535156	1092.072021484375	722.163330078125	110.2303695678711	1406.066162109375	749.8036499023438	123.5658798217773	1324.484252929688	865.130126953125	1051.031616210938	1365.544555664063	793.536376953125	961.7752685546875	1408.481689453125	642.677490234375	44.97269821166992	1373.10498046875	665.1724853515625	62.63856887817383	1408.744750976563	655.2195434570313	94.67818450927734	1370.541137695313	775.7303466796875	480.5079040527344	1400.17431640625	809.9246826171875	1109.068359375	1391.371459960938	774.01513671875	556.3011474609375	1397.992309570313	783.9439697265625	537.9840087890625	1268.439208984375	864.9305419921875	58.58912658691406	1323.043334960938	879.815185546875	67.03919219970703	1373.520874023438	841.2835083007813	52.91584396362305	1441.97509765625	694.6555786132813	1078.925170898438	1278.715698242188	723.78759765625	193.2749786376953	1409.090087890625	684.56298828125	201.0482330322266	1377.283935546875	729.3455810546875	277.2568054199219	1420.33154296875	687.2144775390625	281.3018188476563	1387.982666015625	774.8893432617188	645.2132568359375	1411.48095703125	717.1513671875	644.9072875976563	1365.188232421875	766.4541625976563	754.7109375	1415.953491210938	713.8952026367188	755.2887573242188	1370.774169921875	829.0155639648438	466.0848999023438	1354.051025390625	
